<svg xmlns="http://www.w3.org/2000/svg" viewBox="-13381 -20793.605 124.75 102.605">
  <defs>
    <style>
      .cls-1 {
        fill: #fff;
      }
    </style>
  </defs>
  <g id="computer" transform="translate(-13414 -20835.605)">
    <path id="Path_173" data-name="Path 173" class="cls-1" d="M8.325,0A8.349,8.349,0,0,0,0,8.325V77.631a8.349,8.349,0,0,0,8.325,8.325H49.908V97.028H45.746a2.789,2.789,0,0,0,0,5.578H79a2.789,2.789,0,0,0,0-5.578H74.842V85.955h41.583a8.349,8.349,0,0,0,8.325-8.325V8.325A8.349,8.349,0,0,0,116.425,0Zm0,5.536h108.1a2.713,2.713,0,0,1,2.789,2.789V63.769H5.536V8.325A2.737,2.737,0,0,1,8.325,5.536ZM101.9,9.7a1.434,1.434,0,0,0-.957.416,1.382,1.382,0,0,0,0,1.956l11.738,11.78a1.413,1.413,0,1,0,2-2L102.9,10.115a1.627,1.627,0,0,0-1-.416Zm-5.869,3.954a1.492,1.492,0,0,0-1,.375,1.432,1.432,0,0,0,0,2L108.766,29.72a1.383,1.383,0,0,0,1.956-1.956L96.986,14.028a1.389,1.389,0,0,0-.957-.375ZM5.536,69.306H119.214v8.325a2.713,2.713,0,0,1-2.789,2.789H8.325a2.713,2.713,0,0,1-2.789-2.789ZM62.4,72.094a2.789,2.789,0,1,0,2.789,2.789A2.789,2.789,0,0,0,62.4,72.094ZM55.444,85.955H69.306V97.028H55.444Z" transform="translate(33 42)"/>
  </g>
</svg>
