<?xml version="1.0" encoding="utf-8"?>
<!-- Generator: Adobe Illustrator 19.0.0, SVG Export Plug-In . SVG Version: 6.00 Build 0)  -->
<svg version="1.1" id="Layer_1" xmlns="http://www.w3.org/2000/svg" xmlns:xlink="http://www.w3.org/1999/xlink" x="0px" y="0px"
	 viewBox="0 0 65.1 33.9" style="enable-background:new 0 0 65.1 33.9;" xml:space="preserve">
<style type="text/css">
	.st0{fill:none;stroke:#FFFFFF;stroke-width:1.2386;stroke-miterlimit:10;}
	.st1{fill:#FFFFFF;}
	.st2{fill:none;stroke:#FFFFFF;stroke-width:0.5958;stroke-linecap:round;stroke-miterlimit:10;}
</style>
<g id="XMLID_2_">
	<g id="XMLID_4_">
		<g id="XMLID_9_">
			<circle id="XMLID_14_" class="st0" cx="23.1" cy="25.6" r="7.6"/>
			<line id="XMLID_13_" class="st0" x1="23.1" y1="18.9" x2="23.1" y2="33.6"/>
			<line id="XMLID_12_" class="st0" x1="15.8" y1="26.3" x2="30.5" y2="26.3"/>
			<line id="XMLID_11_" class="st0" x1="17.9" y1="21.1" x2="28.4" y2="31.5"/>
			<line id="XMLID_10_" class="st0" x1="28.4" y1="21.1" x2="17.9" y2="31.5"/>
		</g>
		<g id="XMLID_6_">
			<path id="XMLID_8_" class="st1" d="M48.5,16.7l-1.7-9l-35.3,5c-3.3,0.6-5.5,3.8-4.9,7.2l0,0c0.6,3.3,3.8,5.5,7.2,4.9L48.5,16.7z"
				/>
			<path id="XMLID_7_" class="st1" d="M49.6,16.3L48,7.7c-0.1-0.4-0.5-0.7-0.9-0.6v0c-0.4,0.1-0.7,0.5-0.6,0.9l1.6,8.6
				c0.1,0.4,0.5,0.7,0.9,0.6l0,0C49.4,17.1,49.7,16.7,49.6,16.3z"/>
		</g>
		<path id="XMLID_5_" class="st2" d="M6.6,19.9c-1.9,0.4-5.1,0.1-6.3-2.3"/>
	</g>
	<polygon id="XMLID_3_" class="st1" points="49.7,7.9 51.1,15.4 58.3,20.2 55.1,15.3 64.8,14 54.4,12.4 65.1,2.1 54.3,8.7 56.3,0 
		51.7,7.3 51,1.9 	"/>
</g>
</svg>
