<svg xmlns="http://www.w3.org/2000/svg" viewBox="0 0 48.75 23.1"><defs><style>.cls-1{fill:#fff;}</style></defs><title>Asset 8</title><g id="Layer_2" data-name="Layer 2"><g id="Layer_1-2" data-name="Layer 1"><path class="cls-1" d="M9.42,13.31a4.9,4.9,0,1,0,4.89,4.9A4.9,4.9,0,0,0,9.42,13.31Zm0,7.3a2.4,2.4,0,1,1,0-4.79h0a2.4,2.4,0,1,1,0,4.79Z"/><path class="cls-1" d="M39.53,13.31a4.9,4.9,0,1,0,4.89,4.9A4.9,4.9,0,0,0,39.53,13.31Zm0,7.3a2.4,2.4,0,1,1,2.39-2.4A2.39,2.39,0,0,1,39.53,20.61Z"/><path class="cls-1" d="M48.59,12.92c-.06-.25-.67-.5-.77-.76C47,9.82,44.41,7.35,38.44,7.25h-.91C32.54,5.06,27.44,0,22.76,0H14.94C10.45,0,6.65,3.77,5.33,7.11,5.1,7.7,1.27,7.16.59,9c-.88,2.34-.87,9.29.68,9.29H3.39v0a6,6,0,0,1,12.07,0v0h18v0a6,6,0,0,1,12.07,0v0h2.52C48.52,18.21,49,14.77,48.59,12.92ZM31.86,6.71a.75.75,0,0,1-.73.55H9.6A.72.72,0,0,1,9,6.88a.74.74,0,0,1,0-.76c1.54-2.65,3.88-4.57,7.35-4.57h5.9c2.8,0,6.43,2.45,8.72,3.92l.62.4A.75.75,0,0,1,31.86,6.71Z"/></g></g></svg>