<svg xmlns="http://www.w3.org/2000/svg" viewBox="0 0 56.4 32.4"><style type="text/css">
	.st0{fill:#FFFFFF;}
</style><path class="st0" d="M47.9 15.3c-0.6 0-1.3 0.1-1.9 0.2L45 13c3.8-1.9 9 0.6 9 0.6 -4-4.7-8.4-4.1-10.2-3.6l-1-2.6c1.1-0.5 1.8-1.5 1.8-2.7 0-1.7-1.4-3-3.1-3 -0.4 0-0.8 0.1-1.2 0.2 -0.9-1-2.8-2.3-6.6-1.8 -0.7 0.1-1.2 0.7-1 1.4 0.1 0.6 0.7 1 1.3 0.9C38.1 2 39 3.8 39 4l0.5 1.3 1.2 3.2c-1.9-1.1-5.9-2.8-10.4-2.3 -2.3 0.3-4.7 1.1-7.1 2.8 0 0-2.9-1.8-4.5-1.8 0 0-0.1 0-0.2 0 -1.1 0-4.6-0.3-8.1-0.6C6.6 6.3 2.8 6 2.3 6c0 0-0.1 0-0.1 0 0 1.4 0.8 2.6 1.9 3.3 0.3 0.2 0.7 0.3 1.1 0.4L7 10.1l2.1 0.4c0 0 2 1.3 4.4 3.2 1.3 1.1 2.8 2.3 4 3.5 -0.6 0.4-1.4 0.8-2.2 1.3 -1.6-2-4-3.3-6.7-3.3 -4.7 0-8.6 3.8-8.6 8.6 0 4.7 3.8 8.6 8.6 8.6 4.7 0 8.6-3.8 8.6-8.6 0-0.3 0-0.6-0.1-0.9l3.3-0.8v0 0h12.4c6.8-3.1 8.7-7.9 9.2-10.7l1.9 4.9c-2.7 1.4-4.5 4.3-4.5 7.5 0 4.7 3.8 8.6 8.6 8.6s8.6-3.8 8.6-8.6C56.4 19.1 52.6 15.3 47.9 15.3L47.9 15.3zM14.2 23.9c0 3.1-2.5 5.7-5.7 5.7 -3.1 0-5.7-2.5-5.7-5.7 0-3.1 2.5-5.7 5.7-5.7 1.7 0 3.2 0.7 4.2 1.9 -1.1 0.7-2.2 1.3-3.1 1.9 -0.4-0.3-0.8-0.4-1.3-0.4 -1.2 0-2.2 1-2.2 2.2 0 1.2 1 2.2 2.2 2.2 0.9 0 1.7-0.6 2.1-1.4l3.8-0.9C14.2 23.7 14.2 23.8 14.2 23.9L14.2 23.9zM47.9 29.5c-3.1 0-5.7-2.5-5.7-5.7 0-2 1.1-3.8 2.6-4.8l1.3 3.4c-0.3 0.4-0.5 0.9-0.5 1.4 0 1.2 1 2.2 2.2 2.2 1.2 0 2.2-1 2.2-2.2 0-1-0.7-1.9-1.7-2.1l-1.3-3.5c0.3 0 0.5-0.1 0.8-0.1 3.1 0 5.7 2.5 5.7 5.7C53.5 27 51 29.5 47.9 29.5L47.9 29.5z"/></svg>
