<svg width="107" height="108" viewBox="0 0 107 108" fill="none" xmlns="http://www.w3.org/2000/svg">
<path d="M90.5957 40.48C88.7961 40.4336 87.0406 41.0411 85.6547 42.19C85.0002 40.7736 83.9544 39.5739 82.6407 38.7321C81.3269 37.8904 79.8 37.4417 78.2397 37.439C76.4401 37.3926 74.6846 38.0001 73.2987 39.149C72.644 37.7348 71.5992 36.5369 70.2871 35.6962C68.975 34.8554 67.4501 34.4068 65.8917 34.403C64.3308 34.3738 62.8007 34.8393 61.5207 35.733V31.933C64.1484 30.4425 66.3388 28.2884 67.8729 25.6859C69.407 23.0834 70.2311 20.1238 70.2627 17.103C70.2627 12.567 68.4608 8.21679 65.2533 5.00935C62.0459 1.80192 57.6957 0 53.1597 0C48.6237 0 44.2735 1.80192 41.066 5.00935C37.8586 8.21679 36.0567 12.567 36.0567 17.103C36.05 20.2019 36.8979 23.2427 38.507 25.8911C40.1161 28.5395 42.4242 30.693 45.1777 32.115V58.532L41.3777 53.591C40.6056 52.5786 39.6336 51.7357 38.5222 51.1145C37.4108 50.4933 36.1835 50.1072 34.9167 49.98C33.6339 49.807 32.3291 49.9035 31.0857 50.2633C29.8423 50.6232 28.6877 51.2385 27.6957 52.07C26.6833 52.8421 25.8403 53.814 25.2192 54.9255C24.598 56.0369 24.2119 57.2641 24.0847 58.531C23.8986 59.814 23.9887 61.122 24.3492 62.3674C24.7096 63.6128 25.332 64.7667 26.1747 65.752L49.9297 95.779V106.041C49.9297 106.545 50.1299 107.028 50.4862 107.384C50.8425 107.741 51.3258 107.941 51.8297 107.941C52.3336 107.941 52.8169 107.741 53.1732 107.384C53.5295 107.028 53.7297 106.545 53.7297 106.041V94.828C53.6903 94.4243 53.5604 94.0346 53.3497 93.688L29.2157 63.093C28.7479 62.475 28.4064 61.7709 28.2108 61.0209C28.0152 60.2709 27.9693 59.4897 28.0757 58.722C28.162 57.936 28.4089 57.1762 28.8011 56.4897C29.1933 55.8031 29.7225 55.2045 30.3557 54.731C30.9737 54.2632 31.6778 53.9217 32.4278 53.7261C33.1778 53.5305 33.9589 53.4846 34.7267 53.591C35.5126 53.6773 36.2725 53.9242 36.959 54.3164C37.6456 54.7087 38.2442 55.2378 38.7177 55.871L45.9397 64.994C46.1789 65.303 46.5123 65.5258 46.8893 65.6286C47.2664 65.7314 47.6667 65.7088 48.0297 65.564C48.4049 65.4584 48.7365 65.2354 48.9758 64.9277C49.2152 64.62 49.3497 64.2437 49.3597 63.854V30.788V19.003C49.3509 18.4235 49.4575 17.848 49.6732 17.3101C49.8889 16.7722 50.2094 16.2825 50.6161 15.8696C51.0228 15.4567 51.5076 15.1288 52.0422 14.905C52.5768 14.6811 53.1506 14.5659 53.7302 14.5659C54.3097 14.5659 54.8835 14.6811 55.4181 14.905C55.9528 15.1288 56.4375 15.4567 56.8442 15.8696C57.2509 16.2825 57.5715 16.7722 57.7872 17.3101C58.0029 17.848 58.1094 18.4235 58.1007 19.003V50.171C58.0862 50.4243 58.1254 50.6778 58.2157 50.9149C58.3061 51.152 58.4455 51.3673 58.6249 51.5467C58.8044 51.7262 59.0197 51.8656 59.2568 51.956C59.4939 52.0463 59.7474 52.0855 60.0007 52.071C60.254 52.0855 60.5075 52.0463 60.7446 51.956C60.9817 51.8656 61.197 51.7262 61.3764 51.5467C61.5558 51.3673 61.6953 51.152 61.7856 50.9149C61.876 50.6778 61.9152 50.4243 61.9007 50.171V42.003C61.9921 40.9093 62.4933 39.8906 63.3037 39.1505C64.1142 38.4105 65.1742 38.0039 66.2717 38.012C66.8478 38.0028 67.4199 38.1095 67.954 38.3258C68.4881 38.542 68.9733 38.8634 69.3808 39.2709C69.7882 39.6783 70.1096 40.1635 70.3259 40.6976C70.5422 41.2317 70.6489 41.8038 70.6397 42.38V52.832C70.6252 53.0853 70.6644 53.3388 70.7547 53.5759C70.8451 53.813 70.9845 54.0283 71.1639 54.2077C71.3434 54.3871 71.5587 54.5266 71.7958 54.617C72.0329 54.7073 72.2864 54.7465 72.5397 54.732C73.0436 54.732 73.5269 54.5318 73.8832 54.1755C74.2395 53.8192 74.4397 53.3359 74.4397 52.832V44.85C74.6016 43.766 75.1714 42.7847 76.0326 42.1067C76.8938 41.4287 77.9814 41.1052 79.0732 41.2022C80.1649 41.2992 81.1784 41.8095 81.9065 42.6288C82.6347 43.448 83.0225 44.5144 82.9907 45.61V54.731C82.9762 54.9843 83.0154 55.2378 83.1057 55.4749C83.1961 55.712 83.3355 55.9273 83.5149 56.1067C83.6944 56.2861 83.9097 56.4256 84.1468 56.516C84.3839 56.6063 84.6374 56.6455 84.8907 56.631C85.144 56.6455 85.3975 56.6063 85.6346 56.516C85.8717 56.4256 86.087 56.2861 86.2664 56.1067C86.4458 55.9273 86.5853 55.712 86.6756 55.4749C86.766 55.2378 86.8052 54.9843 86.7907 54.731V48.081C86.8821 46.9873 87.3833 45.9686 88.1937 45.2285C89.0042 44.4885 90.0642 44.0819 91.1617 44.09C91.7389 44.0794 92.3124 44.1852 92.8478 44.4011C93.3833 44.6169 93.8698 44.9384 94.2784 45.3463C94.687 45.7542 95.0092 46.2402 95.2259 46.7753C95.4426 47.3105 95.5493 47.8837 95.5397 48.461V84.187C95.5399 85.7628 95.1805 87.318 94.4889 88.7339C93.7973 90.1499 92.7917 91.3894 91.5487 92.358C91.1143 92.7519 90.8431 93.2942 90.7887 93.878V106.04C90.7887 106.544 90.9889 107.027 91.3452 107.383C91.7015 107.74 92.1848 107.94 92.6887 107.94C93.1926 107.94 93.6759 107.74 94.0322 107.383C94.3885 107.027 94.5887 106.544 94.5887 106.04V94.828C96.1001 93.501 97.3071 91.8633 98.1271 90.0267C98.9471 88.1902 99.3607 86.1982 99.3397 84.187V48.461C99.0938 46.2982 98.0723 44.2979 96.4646 42.8304C94.8569 41.363 92.7719 40.528 90.5957 40.48ZM53.3497 10.835C52.2747 10.827 51.2088 11.0328 50.2141 11.4404C49.2193 11.8481 48.3155 12.4494 47.5552 13.2094C46.7949 13.9694 46.1933 14.873 45.7853 15.8676C45.3773 16.8622 45.1711 17.928 45.1787 19.003V27.364C43.5433 26.1094 42.2145 24.4994 41.2927 22.6558C40.3709 20.8121 39.8802 18.7831 39.8577 16.722C39.8577 13.1946 41.2589 9.81171 43.7532 7.31748C46.2474 4.82325 49.6303 3.422 53.1577 3.422C56.6851 3.422 60.068 4.82325 62.5622 7.31748C65.0564 9.81171 66.4577 13.1946 66.4577 16.722C66.4226 18.715 65.9638 20.6777 65.112 22.4797C64.2601 24.2818 63.0345 25.882 61.5167 27.174V19.003C61.4999 16.8421 60.6342 14.7744 59.1062 13.2462C57.5782 11.718 55.5106 10.852 53.3497 10.835Z" fill="white"/>
<path d="M106.179 17.4859C106.37 16.9974 106.37 16.4545 106.179 15.9659C105.989 15.7759 105.989 15.5859 105.799 15.3959L98.1987 7.79592C98.0271 7.61585 97.8208 7.47249 97.5922 7.37454C97.3636 7.27658 97.1174 7.22607 96.8687 7.22607C96.62 7.22607 96.3738 7.27658 96.1452 7.37454C95.9166 7.47249 95.7103 7.61585 95.5387 7.79592C95.3586 7.96749 95.2153 8.17384 95.1173 8.40246C95.0194 8.63107 94.9689 8.8772 94.9689 9.12592C94.9689 9.37464 95.0194 9.62077 95.1173 9.84939C95.2153 10.078 95.3586 10.2844 95.5387 10.4559L99.9077 14.8239H77.8637C77.6104 14.8094 77.3569 14.8486 77.1198 14.939C76.8827 15.0293 76.6674 15.1688 76.488 15.3482C76.3086 15.5276 76.1691 15.7429 76.0787 15.98C75.9884 16.2171 75.9492 16.4706 75.9637 16.7239C75.9492 16.9772 75.9884 17.2308 76.0787 17.4678C76.1691 17.7049 76.3086 17.9203 76.488 18.0997C76.6674 18.2791 76.8827 18.4185 77.1198 18.5089C77.3569 18.5992 77.6104 18.6384 77.8637 18.6239H99.9077L95.5367 22.9949C95.3566 23.1665 95.2133 23.3728 95.1153 23.6015C95.0174 23.8301 94.9669 24.0762 94.9669 24.3249C94.9669 24.5736 95.0174 24.8198 95.1153 25.0484C95.2133 25.277 95.3566 25.4834 95.5367 25.6549C95.7083 25.835 95.9146 25.9784 96.1432 26.0763C96.3719 26.1743 96.618 26.2248 96.8667 26.2248C97.1154 26.2248 97.3616 26.1743 97.5902 26.0763C97.8188 25.9784 98.0251 25.835 98.1967 25.6549L105.797 18.0549C105.989 17.8659 106.179 17.6759 106.179 17.4859Z" fill="white"/>
<path d="M6.41267 18.624H28.4557C28.709 18.6385 28.9625 18.5993 29.1996 18.5089C29.4367 18.4186 29.652 18.2791 29.8314 18.0997C30.0108 17.9203 30.1503 17.705 30.2406 17.4679C30.331 17.2308 30.3702 16.9773 30.3557 16.724C30.3702 16.4707 30.331 16.2172 30.2406 15.9801C30.1503 15.743 30.0108 15.5277 29.8314 15.3483C29.652 15.1688 29.4367 15.0294 29.1996 14.939C28.9625 14.8487 28.709 14.8095 28.4557 14.824H6.41267L10.7837 10.453C10.9637 10.2814 11.1071 10.0751 11.2051 9.84646C11.303 9.61784 11.3535 9.37171 11.3535 9.12299C11.3535 8.87427 11.303 8.62814 11.2051 8.39953C11.1071 8.17091 10.9637 7.96456 10.7837 7.79299C10.6121 7.61292 10.4058 7.46956 10.1771 7.37161C9.94852 7.27365 9.70239 7.22314 9.45367 7.22314C9.20495 7.22314 8.95882 7.27365 8.7302 7.37161C8.50158 7.46956 8.29523 7.61292 8.12367 7.79299L0.52367 15.393C0.33367 15.583 0.14367 15.773 0.14367 15.963C-0.0478899 16.4516 -0.0478899 16.9944 0.14367 17.483C0.33367 17.673 0.33367 17.863 0.52367 18.053L8.12367 25.653C8.29086 25.8386 8.49638 25.9858 8.72601 26.0842C8.95565 26.1826 9.20393 26.23 9.45367 26.223C9.70341 26.23 9.95169 26.1826 10.1813 26.0842C10.411 25.9858 10.6165 25.8386 10.7837 25.653C10.9637 25.4814 11.1071 25.2751 11.2051 25.0465C11.303 24.8178 11.3535 24.5717 11.3535 24.323C11.3535 24.0743 11.303 23.8281 11.2051 23.5995C11.1071 23.3709 10.9637 23.1646 10.7837 22.993L6.41267 18.624Z" fill="white"/>
</svg>
