<?xml version="1.0" encoding="utf-8"?>
<!-- Generator: Adobe Illustrator 19.0.0, SVG Export Plug-In . SVG Version: 6.00 Build 0)  -->
<svg version="1.1" id="Layer_1" xmlns="http://www.w3.org/2000/svg" xmlns:xlink="http://www.w3.org/1999/xlink" x="0px" y="0px"
	 viewBox="0 0 57.2 46.3" style="enable-background:new 0 0 57.2 46.3;" xml:space="preserve">
<style type="text/css">
	.st0{fill:#FFFFFF;}
</style>
<g id="XMLID_2_">
	<path id="XMLID_6_" class="st0" d="M13.2,22l-5.5,9.6h4.4l-3.2,7.9l7-9.4h-4.6C11.3,30.1,12.9,21.8,13.2,22z"/>
	<path id="XMLID_5_" class="st0" d="M37.8,23.5l-7,14.4h4.9l-2.8,8.4l7.3-11.7H35C35,34.6,37.5,23.2,37.8,23.5z"/>
	<path id="XMLID_4_" class="st0" d="M24.4,11.8c-0.7-4.2-4.4-7.3-8.7-7.3c-4.3,0-8,3.1-8.7,7.2H5.8c-3.2,0-5.8,2.6-5.8,5.8
		c0,3.2,2.6,5.8,5.8,5.8h17.5c3.2,0,5.8-2.6,5.8-5.8C29.1,14.7,27.1,12.3,24.4,11.8z"/>
	<path id="XMLID_3_" class="st0" d="M50,11.3C48.8,4.9,43.2,0,36.5,0c-5,0-9.3,2.7-11.7,6.6c0.7,1,1.3,2.1,1.7,3.3
		c3.1,1.2,5.1,4.2,5.1,7.6c0,4.5-3.7,8.2-8.2,8.2h-9c1.6,2,4.1,3.3,6.9,3.3h27.1c4.9,0,8.9-4,8.9-8.9C57.2,15.7,54.1,12.1,50,11.3z"
		/>
</g>
</svg>
