<svg xmlns="http://www.w3.org/2000/svg" viewBox="-11723 -13934 23.293 23.293">
  <defs>
    <style>
      .cls-1 {
        fill: #fff;
      }
    </style>
  </defs>
  <path id="Path_166" data-name="Path 166" class="cls-1" d="M15.341,11.622l7.706-7.706a.759.759,0,0,0,0-1.07L20.4.2a.759.759,0,0,0-1.07,0L11.622,7.9,3.915.2a.759.759,0,0,0-1.07,0L.2,2.845a.759.759,0,0,0,0,1.07L7.9,11.622.2,19.328a.759.759,0,0,0,0,1.07l2.649,2.649a.759.759,0,0,0,1.07,0l7.706-7.706,7.706,7.706a.759.759,0,0,0,1.07,0L23.047,20.4a.759.759,0,0,0,0-1.07Z" transform="translate(-11722.975 -13933.975)"/>
</svg>