<svg xmlns="http://www.w3.org/2000/svg" viewBox="0 0 34.22 36.73"><defs><style>.cls-1{fill:#fff;}</style></defs><title>icon-desert</title><g id="Layer_2" data-name="Layer 2"><g id="Layer_1-2" data-name="Layer 1"><path class="cls-1" d="M32.1,32.56H26.38V22.75A7.84,7.84,0,0,0,32.64,15V12.71a2.09,2.09,0,1,0-4.17,0V15a3.71,3.71,0,0,1-2.09,3.32V4.6a2.09,2.09,0,1,0-4.17,0V21.79a3.72,3.72,0,0,1-1.82-3.17v-3a2.09,2.09,0,1,0-4.17,0v3a7.87,7.87,0,0,0,6,7.65v6.29H17.61s-2,0-2-3.05L4,29.47c0,3.09-2.24,3.09-2.24,3.09h.35a2.09,2.09,0,1,0,0,4.17H32.14a2.07,2.07,0,0,0,2.08-2.08A2.13,2.13,0,0,0,32.1,32.56Z"/><circle class="cls-1" cx="8.31" cy="7.24" r="3.51"/><polygon class="cls-1" points="8.31 0 7.45 2.94 9.18 2.94 8.31 0"/><polygon class="cls-1" points="8.31 14.48 9.18 11.54 7.45 11.54 8.31 14.48"/><polygon class="cls-1" points="15.55 7.24 12.61 6.38 12.61 8.11 15.55 7.24"/><polygon class="cls-1" points="1.07 7.24 4.01 8.11 4.01 6.38 1.07 7.24"/><polygon class="cls-1" points="13.43 2.12 10.74 3.59 11.96 4.82 13.43 2.12"/><polygon class="cls-1" points="3.19 12.36 5.88 10.89 4.66 9.67 3.19 12.36"/><polygon class="cls-1" points="3.19 2.12 4.66 4.82 5.88 3.59 3.19 2.12"/><polygon class="cls-1" points="13.43 12.36 11.96 9.67 10.74 10.89 13.43 12.36"/><path class="cls-1" d="M7.34,30.13H4.67A.66.66,0,0,1,4,29.47v-6H2.69A2.66,2.66,0,0,1,0,20.83V19.51a1.33,1.33,0,1,1,2.65,0v1.32H4v-2a2,2,0,0,1,4,0v6H9.32V23.5a1.33,1.33,0,1,1,2.65,0v1.32a2.66,2.66,0,0,1-2.65,2.66H8v2A.66.66,0,0,1,7.34,30.13Z"/></g></g></svg>