<?xml version="1.0" encoding="UTF-8"?><svg id="Layer_2" xmlns="http://www.w3.org/2000/svg" viewBox="0 0 11.73 9.32"><defs><style>.cls-1{fill:#fff;}</style></defs><g id="Layer_1-2"><path class="cls-1" d="M5.87,8.31c0,.21-.12.39-.31.48-.07.03-.15.05-.23.05-.12,0-.24-.04-.34-.12l-2.91-2.41H.53c-.29,0-.53-.24-.53-.53v-2.12c0-.29.24-.53.53-.53h1.55L4.99.71c.16-.13.38-.16.57-.07.19.09.31.28.31.48v7.19ZM7.91,7.48s-.03,0-.04,0c-.14,0-.28-.06-.38-.16l-.07-.07c-.19-.19-.21-.48-.05-.69.4-.54.61-1.18.61-1.84,0-.72-.24-1.39-.69-1.95-.17-.21-.16-.52.04-.71l.07-.07c.11-.11.25-.16.4-.16.15,0,.29.08.39.19.63.77.96,1.7.96,2.7,0,.93-.29,1.81-.85,2.55-.09.12-.23.2-.39.21h0ZM10.12,9.13c-.1.11-.24.18-.38.19,0,0-.01,0-.02,0-.14,0-.28-.06-.38-.16l-.07-.07c-.2-.2-.21-.51-.03-.72.86-1.02,1.33-2.32,1.33-3.65s-.51-2.72-1.43-3.76c-.19-.21-.18-.53.02-.73l.07-.07c.1-.1.24-.16.39-.16.15,0,.29.07.38.18,1.11,1.25,1.72,2.86,1.72,4.54,0,1.61-.57,3.18-1.61,4.41h0Z"/></g></svg>