<?xml version="1.0" encoding="utf-8"?>
<!-- Generator: Adobe Illustrator 19.0.0, SVG Export Plug-In . SVG Version: 6.00 Build 0)  -->
<svg version="1.1" id="Layer_1" xmlns="http://www.w3.org/2000/svg" xmlns:xlink="http://www.w3.org/1999/xlink" x="0px" y="0px"
	 viewBox="0 0 59.2 37.2" style="enable-background:new 0 0 59.2 37.2;" xml:space="preserve">
<style type="text/css">
	.st0{fill:#FFFFFF;}
</style>
<g id="XMLID_2_">
	<path id="XMLID_11_" class="st0" d="M19,0.1c-1.2,0.1-2,0.2-2,0.2C17.7,0.1,18.4,0.1,19,0.1z"/>
	<path id="XMLID_10_" class="st0" d="M19,0.1c3.1-0.1,9.8,0.1,16.9,3.4C31.3,1.1,25.7-0.3,19,0.1z"/>
	<path id="XMLID_3_" class="st0" d="M58.9,31.9c-0.7-0.4-1.5-0.4-2.2-0.7c-0.8-0.3-1.5-0.8-2.3-1.2c-0.4-0.2-0.4-1.4-0.4-1.8
		c-0.1-0.6-0.2-1.4-0.6-1.9c-0.2-0.3-0.3-0.5-0.1-0.8c0.1-0.2,0.4-0.5,0.4-0.8c0.4-1.2,0.5-2.7,0.1-3.9c-0.2-0.4-0.8-1.4-1.1-1.8
		c-4.9-8.2-11-13-16.8-15.7c10.8,5.4,15.9,15.3,15.9,15.3c-0.5-0.2-0.4,0.1-0.9,0.1c-0.5,0.1-1.2-0.1-1.7,0.3
		c-0.1,0.1-0.1,0.3-0.3,0.2c-0.1-0.1-0.3-0.1-0.4-0.2c-0.3-0.1-0.6-0.1-1-0.1c-2,0.2-3.9-0.2-5.7-0.1c-2.4,0.2-4.9,0.1-7.3,0.2
		c-0.3,0-0.7,0.1-0.9,0.1c-0.4,0-0.5,0.1-0.8-0.2c-0.4-0.5-0.8-1-1.2-1.5c-0.9-0.9-1.8-1.8-2.7-2.8c-0.4-0.5-0.8-1-1.1-1.5
		c-0.4-0.5-0.8-0.8-1.2-1.2c-0.9-0.9-2-2.2-3.3-2.5c-0.7-0.2-1.2,0.4-1.2,1.1c-0.1,0.4-1.5,3.6-1.4,3.6c-0.2,0.1-0.1,0.6-0.4,0.6
		c-1.3,0.1-1.6-2.5-3.1-2c-0.7,0.2-1.2,1.4-0.9,2.1c0.2,0.4,0.5,0.7,0,1.1c-0.4,0.3-1.9,2.3-1.7,2.2c-0.1,0-0.4,0.5-0.5,0.7
		c-0.2,0.2-0.4,0.4-0.7,0.4c-0.7,0.2-1.4,0.1-2.1,0c-0.7-0.1-1.2-0.2-1.8-0.1c-0.7,0.1-1.2,0.3-1.8,0.7c-0.2,0.2-0.5,0.4-0.7,0.7
		c-0.2,0.2-0.2,0.7-0.3,1c-0.7,2.7,2.1,2.1,3.4,2.9c0.4,0.2-0.8,1.6-0.8,1.9c-0.1,0.1-0.1,0.3-0.2,0.4c-0.1,0.3-0.1,0.2-0.4,0.1
		c-2.1-0.7-4.1-1.5-6-2.5c-0.2-0.1-0.2-0.2-0.4,0c-0.1,0.1-0.1,0.2,0,0.3c0.7,1.8,3.3,2.1,4.7,3.1C7,28,7.2,28.1,7.5,28.3
		C8,28.6,8,28.6,7.8,29.2c-0.3,0.7-0.7,1.4-0.9,2.1c-0.2,0.5-0.5,1-0.7,1.5C6,33.1,5.9,33.7,5.7,34c-0.2,0.2-0.8,0.4-1.1,0.7
		C4,35,3.4,35.2,3,35.5c-0.7,0.5-1.1,0.6-1.8,0.7c-0.2,0-1.5,0.5-1,1c0.1,0.1,1.1-0.6,1.4-0.7c-0.2,0.2,1.8-0.5,1.8-0.6
		c0.2-0.2,2.1-0.8,2.4-0.9c0.2-0.1,1.4,0.1,1.5-0.4c0.1-0.4,0.1-0.8,0.2-1.1c0.1-0.3,0.5-1.3,0.6-1.6C8.1,31.3,9,29,9.2,29
		c0.1,0,0.4,0.2,0.5,0.2c1.9,0.6,3.9,0.9,5.9,0.7c0.1,0,1.2-0.2,1.1-0.1c-0.1,0.4-0.5,2.1,0.1,2.5c-0.5,0.3-1.2,0.5-1.8,0.7
		c-0.7,0.1-1.4,0.4-2.1,0.4c-0.4,0.1-2.3,1.2-2.4,1.5c0.9-0.5,2-0.7,3-1c0.3-0.1,4-1.2,4-1c0.1-0.4,0.1-0.7,0.2-1
		c0.1-0.3,0.1-0.6,0.1-0.9c0.1-0.3,0.2-0.6,0.3-0.9c0.1-0.3,0.1-0.7,0.5-0.5c0.9,0.3,1.7,0.8,2.6,1.1c2.5,0.8,12.1,1.2,13,0.5
		c0.1,0.5-0.4,0.7-0.4,0.9c0,0.2,0.2,0.3,0.3,0.5c0-0.1-4,0.9-4.4,1.1c-0.4,0.2-0.6,0.4-0.9,0.5c-0.5,0.2-0.9,0.5-1.1,1
		c0.8,0,1.3-0.3,1.7-0.6c0.2-0.1,0.6-0.2,0.8-0.4c0.9-0.5,3.4-0.9,3.6-0.9c0.1-0.1,0.2-0.1,0.4-0.2c0.2-0.1,0.3-0.2,0.4,0
		c0.1,0.1,0.4-0.2,0.4-0.2c0.1-0.3,0.1-0.6,0.1-0.9c0.1-0.4-0.1-1.7,0.5-1.7c4.9-0.4,10.8-2,11-2.1c0.4-0.1,0.5,0.2,0.7,0.5
		c0.1,0.2,0.2,0.5,0.3,0.8c0.1,0.4,0.1,0.7,0.2,1c0.1,0.5,0.4,0.4,0.7,0.4c1.7,0.4,3.4,0.2,5.1,0.1c-0.1,0.2,0.9,0,1.5,0.1
		c0.5,0.1,0.8,0.5,1.2,0.7c0.4,0.2,0.8,0.1,1.2,0.3c0.4,0.2,1.7,0.1,1.8,0.3C59.1,32.2,59.1,32.1,58.9,31.9z M16.9,27.3
		c-0.2,0.2-0.7,0.2-0.9,0.2c-0.7,0.1-1.4,0.1-2.1,0c-1.4-0.1-2.7-0.2-4-0.3c0.1-0.1,0.1-0.1,0.1-0.2c0.1-0.4,0.4-0.5,0.4-1
		c0-0.4,0.4-0.8,0.7-1c0.8-0.4,1.8,0.1,2.5,0.2c0.4,0.1,0.8,0.1,1.3,0.1c0.4,0,0.8,0.2,1.2,0.2c0.2,0,1.1,0,1.1,0.3
		C17.3,25.9,17.2,27.1,16.9,27.3z M19.3,17c-0.2,0.5-0.3,1-0.6,1.4c-0.1,0.2-0.5,0.3-0.5,0.5c0,0.3-0.3,0.2-0.5,0.2
		c-0.9,0-1.9,0.1-2.9,0.1c0.1-0.3,0.2-0.5,0.4-0.8l1.2-1.6c0.1-0.1,1.1-1.5,1.7-1.4c0.5,0.1,1.1,0.7,1.5,1
		C19.4,16.5,19.1,17.1,19.3,17z M19.8,19c0.3-0.6,0.5-1.1,0.7-1.8c0.2,0.2,0.5,0.3,0.7,0.5c0.8,0.4,1.4,1.1,2.1,1.7
		C22.2,19.2,21,19.1,19.8,19z M27.4,19.6c-0.5-0.1-0.9-0.5-1.4-0.7c-0.9-0.6-1.5-1.3-2.5-1.7c-0.5-0.2-0.9-0.4-1.2-0.7
		c-0.2-0.1-0.4-0.3-0.5-0.4c-0.4-0.2-0.5-0.2-0.4-0.7c0.4-0.9,0.7-1.9,1.2-2.8c0.1-0.2,0.2-0.4,0.3-0.6c0.2-0.3,0.2-0.4,0.5-0.4
		c0.5,0.1,0.8,0.4,1.2,0.6c0.8,0.4,1.4,1.3,1.8,2c1.1,1.7,1.8,3.6,2.5,5.4C28.4,19.7,28,19.7,27.4,19.6z M53,30.4l-3.4-0.1
		c-0.4,0-1-0.2-1.2-0.4c-0.2-0.1-0.2-0.5-0.3-0.7c-0.2-0.4-0.4-0.9-0.6-1.3c-0.1-0.2-0.3-0.5-0.2-0.8c0.1-0.1,0.1-0.2,0.2-0.2
		c0.1,0,0.2,0.1,0.2,0.1c0.1,0,0.1-0.1,0.2-0.1c0.2-0.1,0.5-0.4,0.8-0.5c0.2-0.1,0.5-0.2,0.7-0.3c0.3-0.2,0.4-0.1,0.7-0.2
		c0.1,0.4,0.2,0.8,0.2,1.2c0.1,0.2,0.2,0.9,0.5,0.9c0.4-0.1,0.8-0.1,1.1-0.2c0.2-0.2,0.5-0.6,0.7-0.9c0.2,0.6,0.5,1.1,0.6,1.7
		c0.1,0.3,0.1,0.7,0.2,0.9c0.1,0.2,0.1,0.4,0.1,0.7C53.4,30.4,53.1,30.4,53,30.4z"/>
</g>
</svg>
