<svg xmlns="http://www.w3.org/2000/svg" viewBox="-13566.559 -19843.912 26.697 26.697">
  <defs>
    <style>
      .cls-1, .cls-4 {
        fill: none;
      }

      .cls-1 {
        stroke: #fff;
      }

      .cls-2 {
        fill: #fff;
      }

      .cls-3 {
        stroke: none;
      }
    </style>
  </defs>
  <g id="Group_24" data-name="Group 24" transform="translate(-13559.956 -19836.037)">
    <g id="Ellipse_30" data-name="Ellipse 30" class="cls-1" transform="translate(-6.603 -7.875)">
      <ellipse class="cls-3" cx="13.349" cy="13.349" rx="13.349" ry="13.349"/>
      <ellipse class="cls-4" cx="13.349" cy="13.349" rx="12.849" ry="12.849"/>
    </g>
    <path id="Path_27" data-name="Path 27" class="cls-2" d="M2.274,20.038a1.306,1.306,0,0,0,.909-.529,2.829,2.829,0,0,0,.05-2.148,3,3,0,0,0-.743-1.4,1.329,1.329,0,0,0-1.322-.4A1.521,1.521,0,0,0,.142,16.569a2.8,2.8,0,0,0-.05,1.652,2.233,2.233,0,0,0,1.982,1.834A.948.948,0,0,0,2.274,20.038Z" transform="translate(0.008 -12.958)"/>
    <path id="Path_28" data-name="Path 28" class="cls-2" d="M21.418.069h0c-.892.182-1.388,1.272-1.14,2.478.149.76.578,1.718,1.239,1.949a.8.8,0,0,0,.3.05,1,1,0,0,0,.644-.264,2.392,2.392,0,0,0,1.008-2.4C23.2.68,22.294-.113,21.418.069Z" transform="translate(-16.874 -0.043)"/>
    <path id="Path_29" data-name="Path 29" class="cls-2" d="M19.045,31.024c-.463-.165-.611-.595-.793-1.107a2.8,2.8,0,0,0-.562-1.074,2.954,2.954,0,0,0-1.916-.743,2.644,2.644,0,0,0-1.751.743,4.612,4.612,0,0,0-.611.942,2.2,2.2,0,0,1-1.09,1.239,2.151,2.151,0,0,0-1.421,2.4c0,.826.562,1.784,2.148,1.784a8.1,8.1,0,0,0,1.735-.2,5.69,5.69,0,0,1,.975-.132,5.69,5.69,0,0,1,.975.132,9.492,9.492,0,0,0,1.735.2c1.586,0,2.148-.958,2.148-1.784A2.479,2.479,0,0,0,19.045,31.024Z" transform="translate(-9.098 -23.465)"/>
    <path id="Path_30" data-name="Path 30" class="cls-2" d="M63.158,20.355c-.727-.595-1.933-.3-2.759.677-.81.991-.876,2.23-.149,2.842a1.339,1.339,0,0,0,.892.314,2.491,2.491,0,0,0,1.85-.991,2.647,2.647,0,0,0,.644-1.5A1.494,1.494,0,0,0,63.158,20.355Z" transform="translate(-49.874 -16.744)"/>
    <path id="Path_31" data-name="Path 31" class="cls-2" d="M46.276.133a1.417,1.417,0,0,0-1.256.512,2.679,2.679,0,0,0-.628,1.4,2.373,2.373,0,0,0,1.14,2.28,1,1,0,0,0,.562.215.788.788,0,0,0,.33-.066,2.6,2.6,0,0,0,1.14-2,2.586,2.586,0,0,0-.231-1.52A1.36,1.36,0,0,0,46.276.133Z" transform="translate(-37.04 -0.107)"/>
  </g>
</svg>
