<svg xmlns="http://www.w3.org/2000/svg" viewBox="-9224 -20862.869 106.322 107.938">
  <defs>
    <style>
      .cls-1 {
        fill: #fff;
      }
    </style>
  </defs>
  <g id="icon" transform="translate(-9224.025 -20862.869)">
    <path id="Path_7" data-name="Path 7" class="cls-1" d="M79.256,40.477a7.442,7.442,0,0,0-4.941,1.71A8.184,8.184,0,0,0,66.9,37.436a7.442,7.442,0,0,0-4.941,1.71A8.184,8.184,0,0,0,54.552,34.4a7.394,7.394,0,0,0-4.371,1.33v-3.8A17.257,17.257,0,0,0,58.923,17.1a17.1,17.1,0,1,0-34.206,0,16.855,16.855,0,0,0,9.121,15.012V58.529l-3.8-4.941a9.293,9.293,0,0,0-6.461-3.611,9.305,9.305,0,0,0-7.221,2.09,9.293,9.293,0,0,0-3.611,6.461,9.1,9.1,0,0,0,2.09,7.221L38.59,95.776v10.262a1.9,1.9,0,1,0,3.8,0V94.825a2.7,2.7,0,0,0-.38-1.14L17.876,63.09a5.9,5.9,0,0,1-1.14-4.371,5.77,5.77,0,0,1,2.28-3.991,5.9,5.9,0,0,1,4.371-1.14,5.77,5.77,0,0,1,3.991,2.28L34.6,64.991a1.8,1.8,0,0,0,2.09.57,1.825,1.825,0,0,0,1.33-1.71V30.785h0V19a4.371,4.371,0,1,1,8.741,0V50.168a1.8,1.8,0,0,0,1.9,1.9h0a1.8,1.8,0,0,0,1.9-1.9V42a4.354,4.354,0,0,1,4.371-3.991A4.3,4.3,0,0,1,59.3,42.377V52.829a1.8,1.8,0,0,0,1.9,1.9h0a1.9,1.9,0,0,0,1.9-1.9V44.847a4.3,4.3,0,0,1,8.551.76v9.121a1.8,1.8,0,0,0,1.9,1.9h0a1.8,1.8,0,0,0,1.9-1.9V48.078a4.354,4.354,0,0,1,4.371-3.991A4.3,4.3,0,0,1,84.2,48.458V84.184a10.357,10.357,0,0,1-3.991,8.171,2.346,2.346,0,0,0-.76,1.52v12.162a1.9,1.9,0,0,0,3.8,0V94.825A13.966,13.966,0,0,0,88,84.184V48.458A9,9,0,0,0,79.256,40.477ZM42.01,10.832A8.111,8.111,0,0,0,33.839,19v8.361a13.6,13.6,0,0,1-5.321-10.642,13.3,13.3,0,0,1,26.6,0,14.051,14.051,0,0,1-4.941,10.452V19A8.232,8.232,0,0,0,42.01,10.832Z" transform="translate(11.366)"/>
    <path id="Path_8" data-name="Path 8" class="cls-1" d="M70.215,14.062a2.082,2.082,0,0,0,0-1.52c-.19-.19-.19-.38-.38-.57l-7.6-7.6a1.837,1.837,0,0,0-2.66,0,1.837,1.837,0,0,0,0,2.66L63.944,11.4H41.9A1.8,1.8,0,0,0,40,13.3a1.8,1.8,0,0,0,1.9,1.9H63.944l-4.371,4.371a1.837,1.837,0,0,0,0,2.66,1.837,1.837,0,0,0,2.66,0l7.6-7.6C70.025,14.442,70.215,14.252,70.215,14.062Z" transform="translate(35.99 3.421)"/>
    <path id="Path_9" data-name="Path 9" class="cls-1" d="M6.439,15.2H28.482a1.8,1.8,0,0,0,1.9-1.9,1.8,1.8,0,0,0-1.9-1.9H6.439l4.371-4.371a1.837,1.837,0,0,0,0-2.66,1.837,1.837,0,0,0-2.66,0l-7.6,7.6c-.19.19-.38.38-.38.57a2.082,2.082,0,0,0,0,1.52c.19.19.19.38.38.57l7.6,7.6a1.725,1.725,0,0,0,1.33.57,1.725,1.725,0,0,0,1.33-.57,1.837,1.837,0,0,0,0-2.66Z" transform="translate(0 3.421)"/>
  </g>
</svg>
