<svg xmlns="http://www.w3.org/2000/svg" viewBox="0 0 42.38 28.6"><defs><style>.cls-1{fill:#fff;}</style></defs><title>Asset 10</title><g id="Layer_2" data-name="Layer 2"><g id="Layer_1-2" data-name="Layer 1"><path class="cls-1" d="M9.57,25.09a5.56,5.56,0,0,1,4.31-5.49.23.23,0,0,0,.12,0l3-.39V19h0l-3.91-.52a.6.6,0,0,1-.46-.6V16.15a6.3,6.3,0,0,0,1.46-1.37,3.76,3.76,0,0,1-1.34-2,3.43,3.43,0,0,1,.79-3.6,3.7,3.7,0,0,1,0-.55,8.25,8.25,0,0,1,1.88-5.27A6.14,6.14,0,0,0,10,0,6.41,6.41,0,0,0,3.91,6.57c0,.52.15,1.55.15,1.61a.66.66,0,0,0-.24,0,.51.51,0,0,0-.21,0c-.58.18-.79,1.15-.52,2.12s.82,1.46,1.36,1.46a7.86,7.86,0,0,0,3,4.42V18a.59.59,0,0,1-.45.6l-3.91.52a4,4,0,0,0-3.09,4v2.3A1.21,1.21,0,0,0,1.21,26.6H9.6V25.09Z"/><path class="cls-1" d="M39.29,19l-3.9-.52a.59.59,0,0,1-.46-.6V16.15a7.9,7.9,0,0,0,3-4.43c.52,0,1.09-.6,1.36-1.45s.07-1.94-.51-2.12a.51.51,0,0,0-.21,0,.66.66,0,0,0-.24,0s.15-1.09.15-1.61A6.34,6.34,0,0,0,32.33,0,6.09,6.09,0,0,0,27,3.36a8.14,8.14,0,0,1,1.88,5.27,3.7,3.7,0,0,1,0,.55,3.42,3.42,0,0,1,.79,3.61,4.2,4.2,0,0,1-1.33,2,6.43,6.43,0,0,0,1.45,1.36V18a.59.59,0,0,1-.45.6l-3.91.52h0v.15l3,.39a.23.23,0,0,1,.12,0,5.58,5.58,0,0,1,4.3,5.49V26.6h8.39a1.21,1.21,0,0,0,1.21-1.21v-2.3A4,4,0,0,0,39.29,19Z"/><path class="cls-1" d="M31.27,25.09a4,4,0,0,0-3.09-4l-3.91-.52a.59.59,0,0,1-.46-.6V18.18a7.9,7.9,0,0,0,3-4.43c.52,0,1.09-.6,1.37-1.45s.06-1.94-.52-2.12a.51.51,0,0,0-.21,0,.66.66,0,0,0-.24,0s.15-1.09.15-1.61a6.34,6.34,0,0,0-6.15-6.51,6.33,6.33,0,0,0-6.15,6.51c0,.52.15,1.55.15,1.61a.66.66,0,0,0-.24,0,.58.58,0,0,0-.22,0c-.57.18-.78,1.15-.51,2.12s.82,1.45,1.36,1.45a7.86,7.86,0,0,0,3,4.43V20a.59.59,0,0,1-.45.6l-3.94.52a4,4,0,0,0-3.09,4v2.3a1.21,1.21,0,0,0,1.21,1.21H30.05a1.22,1.22,0,0,0,1.22-1.21Z"/></g></g></svg>