<?xml version="1.0" encoding="utf-8"?>
<!-- Generator: Adobe Illustrator 19.0.0, SVG Export Plug-In . SVG Version: 6.00 Build 0)  -->
<svg version="1.1" id="Layer_1" xmlns="http://www.w3.org/2000/svg" xmlns:xlink="http://www.w3.org/1999/xlink" x="0px" y="0px"
	 viewBox="0 0 59.7 32.7" style="enable-background:new 0 0 59.7 32.7;" xml:space="preserve">
<style type="text/css">
	.st0{fill:#FFFFFF;}
</style>
<path id="XMLID_21_" class="st0" d="M58.9,26.7c-1.2-1.3-3.4-2.3-4.9-3.4c-3.3-2.5-6.8-3.7-9.7-6.6c-3-3-5.6-7.6-8.3-10.9
	c-0.8-0.9-1.6-2.1-2.5-3.2c-0.7-0.8-1.5-1.4-2.4-2c-0.5-0.3-1.1-0.7-1.6-0.5c-1,0.3-1.5,1.4-2.5,1.6c-0.9,0.2-1.8-0.4-2.6-0.7
	c-0.2-0.1-0.4-0.1-0.6-0.1c-0.2,0-0.3,0.1-0.4,0.2c-0.6,0.3-1.2,0.6-1.6,1.1c-0.8,0.9-1,2.1-1.7,3.1c-0.7,1-1.3,2-2,3
	c-2.1,3-4.1,7.3-6.6,10c-1.9,2-4.6,2.2-6.6,4.2c-1.4,1.4-6.2,5.1-4.7,6.6c4.5,4.5,25.3,3.9,30.1,3.8c6.2-0.1,12.4-0.4,18.5-1.1
	C51.3,31.2,62.8,31,58.9,26.7z M30.3,3.7c-0.1,0.5-0.1,1-0.1,1.5c0,0.4,0.1,1.1-0.2,1.4c-0.4-0.4-0.4-1.3-0.6-1.8
	c-0.1-0.4-0.3-0.8-0.5-1.2c0,0-0.4-0.5-0.7,0C28,4,28,4.6,28,4.9c-0.1,0.7-0.1,1.4-0.1,2.1c0,0.7-0.1,1.4-0.1,2.1
	c0,0.3,0.2,2.4-0.6,1.6c-0.3-0.3-0.4-1.6-0.5-2.1c-0.3-1.2-0.6-2.5-0.8-3.7c-0.1-0.5-0.7-0.7-0.7-0.2C25,5.1,25,5.7,24.8,6.2
	c-0.4,0.8-0.5-0.2-0.6-0.6c-0.2-0.5-0.3-1-0.7-1.3c-0.8-0.9-1.8-1.4,0.4-2.6c1.2,0.4,2.8,0.8,3.9,0.4C28.8,1.7,30,0.9,30,0.9
	s1,0.4,1.1,1.1C31.3,2.6,30.4,2.8,30.3,3.7z"/>
</svg>
