<svg xmlns="http://www.w3.org/2000/svg" viewBox="0 0 43.09 38.4"><defs><style>.cls-1{fill:#fff;}</style></defs><title>icon-lake</title><g id="Layer_2" data-name="Layer 2"><g id="Layer_1-2" data-name="Layer 1"><path class="cls-1" d="M21.76,15.93a.79.79,0,0,0,.79-.77.79.79,0,1,0-1.57,0,.79.79,0,0,0,.78.77m4,1.15c-6.85,5.5-19.36.53-19.36.53L2.81,19.37l-.12,0a.29.29,0,0,1-.28-.28.37.37,0,0,1,0-.15l2.12-2.63L2.45,13.7a.33.33,0,0,1,0-.14.28.28,0,0,1,.28-.28.27.27,0,0,1,.12,0L6.4,15.06c13.09-5.06,19,.16,19,.16a.13.13,0,0,1,0,.1.13.13,0,0,1-.07.13l-2.25,1.07a.23.23,0,0,0-.13.21.22.22,0,0,0,.22.22H25.7a.08.08,0,0,1,.08.08.08.08,0,0,1,0,0h0"/><path class="cls-1" d="M22.67,23.38a.47.47,0,0,0,.46-.46.47.47,0,1,0-.46.46m1.77.26c-2.74,2.19-7.74.21-7.74.21l-1.44.7h0a.1.1,0,0,1-.1-.11.13.13,0,0,1,0-.06L16,23.34l-.85-1.06s0,0,0-.06a.1.1,0,0,1,.1-.11l0,0,1.44.7c5.24-2,7.6.06,7.6.06a.06.06,0,0,1,0,0,.07.07,0,0,1,0,.06l-.89.42a.09.09,0,0,0-.06.08.09.09,0,0,0,.09.09h1s0,0,0,0a0,0,0,0,1,0,0h0"/><path class="cls-1" d="M10.94,23.38a.46.46,0,1,0,0-.91.46.46,0,0,0-.45.45.46.46,0,0,0,.45.46m1.78.26C10,25.83,5,23.85,5,23.85l-1.43.7h0a.11.11,0,0,1-.11-.11.07.07,0,0,1,0-.06l.84-1.05L3.4,22.28s0,0,0-.06a.11.11,0,0,1,.11-.11l0,0,1.43.7c5.24-2,7.61.06,7.61.06a.08.08,0,0,1,0,0s0,0,0,.06l-.91.42a.1.1,0,0,0-.05.08.09.09,0,0,0,.09.09h1s0,0,0,0a0,0,0,0,1,0,0h0"/><path class="cls-1" d="M16.77,27.76a.46.46,0,0,0,.46-.46.46.46,0,0,0-.92,0,.46.46,0,0,0,.46.46m1.77.26c-2.74,2.2-7.74.21-7.74.21l-1.44.7h0a.11.11,0,0,1-.12-.1.08.08,0,0,1,0-.06l.85-1.06-.85-1a.14.14,0,0,1,0-.06.11.11,0,0,1,.12-.11h0l1.44.7c5.23-2,7.6.07,7.6.07l0,0a.09.09,0,0,1,0,.06l-.9.43a.08.08,0,0,0-.06.08.09.09,0,0,0,.09.08h1a0,0,0,0,1,0,0s0,0,0,0h0"/><path class="cls-1" d="M.37,38.21A.42.42,0,0,1,0,37.82a.41.41,0,0,1,.35-.4c2.46-.28,4.7-2.3,6.85-3.43,2.48-1.31,5.68-2,8-.42.63.44,1.14,1,1.78,1.44,2,1.34,4.78.74,6.87-.47s3.87-3,6.05-4a5,5,0,0,1,3-.59c2,.35,3.12,2.38,4.85,3.38,1,.57,2.17.79,3.14,1.39a3.14,3.14,0,0,1,1.34,1.21,3.68,3.68,0,0,1,.45,2.49"/><path class="cls-1" d="M42.72,16.36a.34.34,0,0,0-.24,0,.34.34,0,0,0-.21.14l-.22.29-.45.66c-.25.44-.47.84-.64,1.18s-.38.82-.54,1.22-.31.91-.45,1.42a12.87,12.87,0,0,0-.3,1.42,8.82,8.82,0,0,0-.12,1.23,14.81,14.81,0,0,0,.07,2c.06.54.08.83.09.88,0,.33,0,.61,0,.87a7.25,7.25,0,0,1-.22,1.79,1.53,1.53,0,0,0-.39.14,2.37,2.37,0,0,0-.74.53,3.93,3.93,0,0,0-.44.55c0-.17,0-.32-.05-.44,0-.44-.06-.86-.06-1.27a22,22,0,0,1,.3-3.44c.07-.49.17-1.05.29-1.7a.28.28,0,0,0,.09-.17.38.38,0,0,0,0-.21c0-.29.15-.77.27-1.42.31-1.55.53-2.83.66-3.85.09-.72.17-1.44.22-2.14s.08-1.56.08-2.32,0-1.52-.08-2.15-.12-1.17-.22-1.71-.21-1-.36-1.52a6.71,6.71,0,0,0-.29-.76l-.15-.32a.35.35,0,0,0-.17-.17.36.36,0,0,0-.25,0A.33.33,0,0,0,38,7.2a.34.34,0,0,0-.06.24c0,.21.05.49.08.82a19.62,19.62,0,0,1,.13,2,25.3,25.3,0,0,1-.33,4.23c-.08.45-.17.91-.29,1.39,0,.07,0,.15,0,.23-.1.39-.23.87-.39,1.46s-.35,1.2-.4,1.42c-.15.54-.27,1-.36,1.49a17.84,17.84,0,0,0-.3,2.37l0,0,0,0a.35.35,0,0,0-.08.26.35.35,0,0,0,.1.22c0,.24,0,.49,0,.74a22.51,22.51,0,0,0,.41,4.15c.12.62.26,1.21.41,1.75,0,.18.1.35.16.51l-.47-.39a2.33,2.33,0,0,0-1-.53,1.91,1.91,0,0,0-1,.14,10.88,10.88,0,0,0,.63-1.28,8.12,8.12,0,0,0,.64-3.06,6.94,6.94,0,0,0-.54-2.71,10.92,10.92,0,0,0-.54-1.09c-.09-.16-.29-.5-.61-1s-.45-.76-.59-1a1.19,1.19,0,0,1-.08-.16,9.14,9.14,0,0,1-.43-1,8.49,8.49,0,0,1-.49-3,7.34,7.34,0,0,1,.19-1.41c.05-.24.1-.44.13-.59a.36.36,0,0,0,0-.23.41.41,0,0,0-.16-.16.33.33,0,0,0-.22,0,.35.35,0,0,0-.19.1l-.21.21,0,0a2.59,2.59,0,0,0-.46.56,7.78,7.78,0,0,0-.56,1.12,7.31,7.31,0,0,0-.35,1.26A10.68,10.68,0,0,0,30.48,18a12.25,12.25,0,0,0,.12,1.7,13,13,0,0,0,.34,1.57,25.51,25.51,0,0,0,1,2.78c.32.77.49,1.19.53,1.27q.27.7.45,1.23a7.91,7.91,0,0,1,.43,2.39c0,1.32-.43,1.12-1.52,1.46-.81.25-2.5.67-2.39,1.78s1.46,1.09,2.25,1.11c-.46,0,1.26,1.63,1.6,1.74a8.69,8.69,0,0,0,2.64.1c2.11.07,4,1.77,5.63,3a.9.9,0,0,0,.73.26c.33-.08.43-.48.48-.82.23-1.92.37-5.37-1-6.89a6.75,6.75,0,0,0-.85-.79l-.23-.16c.14-.25.28-.51.41-.78A15.21,15.21,0,0,0,42.23,26a6.25,6.25,0,0,0,.24-2.16,6,6,0,0,0-.15-.76l-.21-.64q-.12-.37-.18-.63a.36.36,0,0,1,0-.1,4.62,4.62,0,0,1-.08-.65,8.66,8.66,0,0,1,.33-2.36,13,13,0,0,1,.48-1.34l.24-.58a.36.36,0,0,0,0-.25A.35.35,0,0,0,42.72,16.36Z"/><circle class="cls-1" cx="30.13" cy="8.83" r="0.56"/><circle class="cls-1" cx="32.13" cy="5.63" r="0.88"/><circle class="cls-1" cx="28.84" cy="13" r="0.88"/><circle class="cls-1" cx="42.52" cy="10.4" r="0.56"/><circle class="cls-1" cx="29.79" cy="1" r="1"/><circle class="cls-1" cx="27.21" cy="24.08" r="0.75"/><circle class="cls-1" cx="27.63" cy="6.14" r="0.47"/></g></g></svg>