<?xml version="1.0" encoding="utf-8"?>
<!-- Generator: Adobe Illustrator 19.0.0, SVG Export Plug-In . SVG Version: 6.00 Build 0)  -->
<svg version="1.1" id="Layer_1" xmlns="http://www.w3.org/2000/svg" xmlns:xlink="http://www.w3.org/1999/xlink" x="0px" y="0px"
	 viewBox="0 0 22.7 35.7" style="enable-background:new 0 0 22.7 35.7;" xml:space="preserve">
<style type="text/css">
	.st0{fill:#FFFFFF;}
</style>
<path id="XMLID_2_" class="st0" d="M20.5,16.6c0.4-4.2-1.1-9.1-1.8-10.8c-1.1-2-3.9-6.4-9.6-5.8s-9.1,6.6-9,13.3s0.6,12.4,8.2,18.8
	s11.7,2.1,12.1,1c0,0,1.1-1.2,1.3-1.8c0.2-0.6,1.2-1.4,1.2-5.4S20,20.8,20.5,16.6z M19.8,25.3c-0.2,0.7-1.1,1.2-1.8,1.3
	c-1,0.2-1.8-0.2-2.7-0.4c-0.6-0.1-1.1-0.2-1.7-0.4c-1.8-0.7-3.5-1.7-5-2.9c-3.4-2.7-0.3-6.9,0.1-7.6c0.4-0.7,1.7-1.1,2.5-1.5
	c0.9-0.4,1.5-0.8,2.1-1.2c0.6-0.4,1.7-0.9,2.3-1.3c0.7-0.4,0.3-1.2-0.1-1.3c-0.4-0.1-1.3,0.3-2.6,0.7c-0.9,0.3-2,0.1-2.7-0.7
	c-0.9-1.1-0.4-3,0.7-3.6c1.2-0.7,0.9-2.1-0.5-2c-0.9,0.1-2,0.6-2.6,1.2c-1,0.9-1.8,2.1-2.3,3.4c-1.5,4-2.4,8.4-1,12.6
	c0.8,2.4,2.9,4.1,4.5,4.8c1.6,0.7,2,0.8,2.2,1.8c0.1,1-1.2,1.6-1.9,0.9c-3.4-2.7-5.1-7.2-5.1-7.2c-3.1-8.2,0.4-14.6,3.6-17
	s6.5-0.8,7.7,1s0.8,5.3,0.3,6.4S15,13.2,14,15c-1.1,1.8-2.7,2.4-5.5,4c-0.6,0.6-0.8,1.6-0.3,2.3c0.6,0.7,1.3,0.9,1.8,0
	c0.9-2,2.6-3.5,4.8-3.7c0.2,0,0.5,0,0.7,0c1.9,0.3,1.9,2.8,1.8,4.2c-0.1,1.6,0.9,1.7,1.5,2c0.6,0.3,1,0.3,1,1.1
	C19.8,25,19.8,25.1,19.8,25.3z"/>
</svg>
