<svg xmlns="http://www.w3.org/2000/svg" viewBox="0 0 48.08 31.29"><defs><style>.cls-1{fill:#fff;}</style></defs><title>Asset 9</title><g id="Layer_2" data-name="Layer 2"><g id="Layer_1-2" data-name="Layer 1"><path class="cls-1" d="M32,16.05h-.8a.81.81,0,0,1,0-1.61H32a.81.81,0,0,1,0,1.61m-3.21,0H28a.81.81,0,0,1,0-1.61h.8a.81.81,0,0,1,0,1.61m-3.21,0h-.8a.81.81,0,0,1,0-1.61h.8a.81.81,0,0,1,0,1.61m-3.21,0h-.8a.81.81,0,0,1,0-1.61h.8a.81.81,0,1,1,0,1.61m-3.21,0h-.8a.81.81,0,0,1,0-1.61h.8a.81.81,0,1,1,0,1.61m-3.21,0h-.8a.81.81,0,0,1,0-1.61H16a.81.81,0,1,1,0,1.61m-3.21,0H12a.81.81,0,0,1,0-1.61h.8a.81.81,0,1,1,0,1.61m-1.6,7.22c-.43,0-.8-.56-.8-1.2s.37-1.21.8-1.21.8.56.8,1.21-.37,1.2-.8,1.2M48.05,20.7a.55.55,0,0,0,0-.17v0l-.09-.1a.3.3,0,0,0-.07-.1l-5.57-5.58A2.42,2.42,0,0,0,43.5,13a2.27,2.27,0,0,0-.9-2.09l2.23-6.67s0-.09,0-.13,0-.08,0-.13,0,0,0,0a1,1,0,0,0,0-.17.65.65,0,0,0,0-.13.57.57,0,0,0-.08-.13l-.1-.12-.11-.08-.15-.08,0,0-.13,0-.12,0H41.66l-.09,0a.4.4,0,0,0-.15,0l-.14.06-.13.08L41,3.52,41,3.59,37.89,8.54,35.11,4.37l-.06,0a.63.63,0,0,0-.11-.12.57.57,0,0,0-.13-.08.35.35,0,0,0-.14-.06.41.41,0,0,0-.16,0l-.07,0H32l-.11,0h-.11l0,0a.71.71,0,0,0-.15.08l-.12.08-.1.12a.57.57,0,0,0-.08.13.69.69,0,0,0-.05.13,1,1,0,0,0,0,.17s0,0,0,0,0,.08,0,.11,0,.08,0,.12l1.31,4.59H22.1l4.23-8.47s0,0,0,0a.75.75,0,0,0,0-.16.8.8,0,0,0,0-.15v0a.43.43,0,0,0,0-.11,1,1,0,0,0,0-.17.57.57,0,0,0-.08-.13L26.2.26a.71.71,0,0,0-.14-.1A.34.34,0,0,0,26,.08h0L25.8,0l-.16,0H22.4a.77.77,0,0,0-.3.06.68.68,0,0,0-.26.18l-9.41,9.4c-4.52.12-6.64,1-8.62,2.92a13.83,13.83,0,0,0,4.1.28A1.61,1.61,0,0,1,8,16.05H6.87c-2.44,0-4.36-.28-5.57-1.23A3.69,3.69,0,0,0,.08,18.3c.36,1.51,1.83,2.49,3.84,2.56H9a3.18,3.18,0,0,0-.24,1.21,2.63,2.63,0,0,0,2.41,2.8c3.05,0,6.28-.63,7.5-2L31.6,31.17l.08,0,.07,0a1,1,0,0,0,.28.05h5.62a.71.71,0,0,0,.32-.07l.07,0a1,1,0,0,0,.2-.15s0,0,0,0a.53.53,0,0,0,.06-.1.71.71,0,0,0,.08-.15.76.76,0,0,0,0-.16s0-.07,0-.11v0a.51.51,0,0,0,0-.17,1,1,0,0,0,0-.14.76.76,0,0,0-.08-.11.71.71,0,0,0-.1-.14l0,0-12-10.14A74.43,74.43,0,0,0,37.46,17l7.76,5.36h0a.61.61,0,0,0,.14.07.15.15,0,0,0,.07,0,.64.64,0,0,0,.2,0h0a.58.58,0,0,0,.19,0l.06,0,.11,0,1.61-.8a.7.7,0,0,0,.1-.08l.1-.07,0,0a.71.71,0,0,0,.1-.14l.07-.12,0-.15a.76.76,0,0,0,0-.15.59.59,0,0,0,0-.14"/></g></g></svg>