<svg xmlns="http://www.w3.org/2000/svg" viewBox="0 0 48.13 18.45"><defs><style>.cls-1{fill:#fff;}</style></defs><title>Asset 7</title><g id="Layer_2" data-name="Layer 2"><g id="Layer_1-2" data-name="Layer 1"><path class="cls-1" d="M18.45,18.45H44.12a.67.67,0,0,0,.28-.06l.09,0a.76.76,0,0,0,.16-.11l.07-.07a.78.78,0,0,0,.1-.15.93.93,0,0,0,0-.1s0,0,0,0L46,14.29.66,9c2.14,5.44,9.3,9.45,17.79,9.45"/><path class="cls-1" d="M45.75,9.62l-2.43-.26V7.49l3,.4Zm-4-.43L38.5,8.85v-2l3.21.43ZM31.42,3.56l0,.07-.06.15a.76.76,0,0,0,0,.16s0,0,0,.07V8.07L24.06,7.3,24.82,2l7.42.36Zm-9,3.57L14,6.22l3.28-4.6,6,.29-.74,5.2v0Zm25.65.1a.92.92,0,0,0,0-.16.58.58,0,0,0,0-.14L48,6.79l-.1-.12-.11-.1-.14-.07a.26.26,0,0,0-.09,0H47.5l-.06,0-12-1.6a.8.8,0,0,0-.21,1.59l1.71.23v2l-4-.43v-4l1.47-2.2s0,0,0,0a.44.44,0,0,0,.06-.16.74.74,0,0,0,0-.14s0,0,0-.06,0-.06,0-.09a.41.41,0,0,0,0-.16.58.58,0,0,0-.05-.14l-.08-.13A.68.68,0,0,0,34.2,1L34.14.94l0,0a.47.47,0,0,0-.15-.06.42.42,0,0,0-.16,0l-.05,0L16.88,0h-.07l-.19,0-.09,0a.87.87,0,0,0-.18.11.23.23,0,0,0-.07.07.32.32,0,0,0-.09.08L12.18,6l0,.07L.89,4.82H.8l-.12,0a.58.58,0,0,0-.14,0l-.15.07L.27,5l-.1.12-.08.12a.49.49,0,0,0,0,.16s0,.07,0,.11,0,0,0,0,0,0,0,0A8.88,8.88,0,0,0,.17,7.33l46.3,5.4L48.1,7.45V7.39a.14.14,0,0,0,0-.07.27.27,0,0,0,0-.09Z"/></g></g></svg>