<svg xmlns="http://www.w3.org/2000/svg" viewBox="-13271.559 -19843.912 26.697 26.697">
  <defs>
    <style>
      .cls-1, .cls-4 {
        fill: none;
      }

      .cls-1 {
        stroke: #fff;
      }

      .cls-2 {
        fill: #fff;
      }

      .cls-3 {
        stroke: none;
      }
    </style>
  </defs>
  <g id="icon" transform="translate(-13264.956 -19836.037)">
    <g id="Ellipse_31" data-name="Ellipse 31" class="cls-1" transform="translate(-6.603 -7.875)">
      <ellipse class="cls-3" cx="13.349" cy="13.349" rx="13.349" ry="13.349"/>
      <ellipse class="cls-4" cx="13.349" cy="13.349" rx="12.849" ry="12.849"/>
    </g>
    <path id="Path_32" data-name="Path 32" class="cls-2" d="M14.892,2.763a1.358,1.358,0,0,0,1.371-1.392,1.381,1.381,0,0,0-2.763.021,1.371,1.371,0,0,0,1.392,1.371" transform="translate(-8.213 -3.371)"/>
    <path id="Path_33" data-name="Path 33" class="cls-2" d="M8.545,18.134a.628.628,0,0,0-.086-.343L7.132,15.285a.748.748,0,0,0-.642-.385H2.077a.723.723,0,0,0-.642.385L.107,17.791a.628.628,0,0,0-.086.343L0,20.939a.741.741,0,0,0,.728.75h0a.722.722,0,0,0,.728-.728L1.5,18.327,2.12,17.17V22.1h0v6.061a.878.878,0,0,0,1.756,0V22.074h.835v6.061a.878.878,0,0,0,1.756,0V17.149l.621,1.178.021,2.634a.736.736,0,0,0,.728.728h0a.741.741,0,0,0,.728-.75Z" transform="translate(2.396 -15.08)"/>
  </g>
</svg>
