<?xml version="1.0" encoding="utf-8"?>
<!-- Generator: Adobe Illustrator 19.0.0, SVG Export Plug-In . SVG Version: 6.00 Build 0)  -->
<svg version="1.1" id="Layer_1" xmlns="http://www.w3.org/2000/svg" xmlns:xlink="http://www.w3.org/1999/xlink" x="0px" y="0px"
	 viewBox="0 0 63.5 45.3" style="enable-background:new 0 0 63.5 45.3;" xml:space="preserve">
<style type="text/css">
	.st0{fill:#FFFFFF;}
</style>
<g id="XMLID_2_">
	<path id="XMLID_4_" class="st0" d="M41.7,17.9c0.2-2.1,0.6-9.4,7.8-11.8c0.6-0.1,1,0.4,1,0.9c0.1,0.6,0.1,4.2,0.5,4.8
		c0.4,0.7,1.3,1.3,3.1,1.5s8.1,3.7,8.9,4.9c0.8,1.2,0.4,1.1-0.1,1.6c-0.5,0.5-3.3,2.9-8.4,3.9c-1.2,0.3-1.7,0.8-1.7,1.8
		c0,1,0.6,4.4,0.6,5.4c0,1.1-0.5,12.2-0.6,13c0,0.8-0.7,1.8-1.7,1S45.3,39.4,40,32.3c-1.1-1.5-1.6-3.5-3.7-2
		c-2.1,1.5-8.8,5.6-10.4,4.2s1.5-9.4,2.3-10.5c0.8-1.1,2.1-2.5,1.2-3.8c-0.9-1.3-2.1-2.5-1.8-3.8c0.3-1.2,7.4-3.7,13.3,1.6
		c0,0-4.5-8.7-7.1-11.8c-2.6-3.1-4-5.8-4-5.8L31,0c0,0,2.4,4.2,3.2,5.5C34.9,6.8,40.9,15.8,41.7,17.9z"/>
	<path id="XMLID_3_" class="st0" d="M15.8,21.3c-0.3-1.5-0.9-6.8-6.2-8.2c-0.5,0-0.7,0.3-0.7,0.7c0,0.4,0.1,3-0.1,3.5
		s-0.9,1-2.2,1.2c-1.3,0.2-5.7,3.1-6.3,4c-0.6,0.9-0.2,0.8,0.2,1.2c0.4,0.4,2.5,2,6.3,2.4c0.9,0.2,1.3,0.5,1.3,1.2
		c0.1,0.7-0.2,3.2-0.2,4c0,0.8,1,8.8,1.1,9.4c0.1,0.6,0.6,1.3,1.3,0.7c0.7-0.6,4-4.3,7.5-9.8c0.7-1.2,1-2.6,2.6-1.6s6.7,3.6,7.8,2.5
		c1.1-1.1-1.6-6.7-2.2-7.5c-0.6-0.8-1.7-1.7-1.1-2.7c0.6-1,1.4-1.9,1.1-2.8s-5.5-2.3-9.6,1.8c0,0,2.9-6.5,4.6-9
		C22.7,10,23.6,8,23.6,8l-0.9-0.3c0,0-1.5,3.2-2,4.2S16.3,19.8,15.8,21.3z"/>
</g>
</svg>
