<?xml version="1.0" encoding="UTF-8"?><svg id="Layer_2" xmlns="http://www.w3.org/2000/svg" viewBox="0 0 9.53 9.53"><defs><style>.cls-1{fill:#fff;}</style></defs><g id="Layer_1-2"><path class="cls-1" d="M4.76,0C2.14,0,0,2.13,0,4.76s2.14,4.76,4.76,4.76,4.76-2.14,4.76-4.76S7.39,0,4.76,0ZM4.23,6.56c0,.23-.19.42-.42.42h-.42c-.23,0-.42-.19-.42-.42v-3.6c0-.23.19-.42.42-.42h.42c.23,0,.42.19.42.42v3.6ZM6.56,6.56c0,.23-.19.42-.42.42h-.42c-.23,0-.42-.19-.42-.42v-3.6c0-.23.19-.42.42-.42h.42c.23,0,.42.19.42.42v3.6Z"/></g></svg>