<svg xmlns="http://www.w3.org/2000/svg" viewBox="0 0 41.76 35.74"><defs><style>.cls-1{fill:#fff;}</style></defs><title>icon-forest</title><g id="Layer_2" data-name="Layer 2"><g id="Layer_1-2" data-name="Layer 1"><path class="cls-1" d="M32.06,25.57l-3.61-6.15H31a.28.28,0,0,0,.19-.08.17.17,0,0,0,0-.19l-3.76-6.42h1.65a.31.31,0,0,0,.2-.08.23.23,0,0,0,0-.2L22.78.12a.23.23,0,0,0-.4,0l-6.5,12.33a.23.23,0,0,0,0,.2.31.31,0,0,0,.2.08h1.8l-3.76,6.42a.17.17,0,0,0,0,.19c0,.08.12.08.2.08h2.43l-3.61,6.15a.18.18,0,0,0,0,.2c0,.07.12.07.2.07h7.28v4.7h3.57v-4.7h7.67a.36.36,0,0,0,.2-.07A.18.18,0,0,0,32.06,25.57Z"/><path class="cls-1" d="M41.73,23,40,19.62H41.1a.22.22,0,0,0,.2-.12.24.24,0,0,0,0-.23l-1.8-3.45h.62a.22.22,0,0,0,.2-.12c0-.08,0-.15,0-.19l-3.25-7a.22.22,0,0,0-.39,0l-3.25,7a.16.16,0,0,0,0,.19.21.21,0,0,0,.19.12h.71l-1.8,3.45a.24.24,0,0,0,0,.23.21.21,0,0,0,.19.12h1L32.06,23a.24.24,0,0,0,0,.23.21.21,0,0,0,.19.12h3.64v2.35h1.8V23.3h3.84a.22.22,0,0,0,.2-.12A.24.24,0,0,0,41.73,23Z"/><path class="cls-1" d="M13.22,23,11.5,19.66h1.1a.22.22,0,0,0,.19-.12.25.25,0,0,0,0-.24L11,15.86h.63a.22.22,0,0,0,.19-.12c0-.08,0-.16,0-.19l-3.25-7a.22.22,0,0,0-.39,0l-3.25,7a.16.16,0,0,0,0,.19.22.22,0,0,0,.2.12h.7L4,19.3a.25.25,0,0,0,0,.24.22.22,0,0,0,.2.12h1L3.51,23a.25.25,0,0,0,0,.24.22.22,0,0,0,.2.12H7.35v2.35h1.8V23.34H13a.21.21,0,0,0,.19-.12A.59.59,0,0,0,13.22,23Z"/><path class="cls-1" d="M40.16,28.27H33.74a.43.43,0,0,1-.43-.43.44.44,0,0,1,.43-.43h6.42a.43.43,0,0,1,.43.43A.43.43,0,0,1,40.16,28.27Z"/><path class="cls-1" d="M36.6,31.05H30.18a.43.43,0,0,1-.43-.43.43.43,0,0,1,.43-.43H36.6a.44.44,0,0,1,.43.43A.39.39,0,0,1,36.6,31.05Z"/><path class="cls-1" d="M37.59,35H16.18a.44.44,0,0,1-.43-.43.43.43,0,0,1,.43-.43H37.59a.43.43,0,0,1,.43.43A.39.39,0,0,1,37.59,35Z"/><path class="cls-1" d="M12.1,31.51a5.94,5.94,0,0,1-1.17-1.92H5.17c-.43,0-.61,1.33-.61,1.73,0,1.71-.91,1.86-.95,2.34l-.12,1.55c0,.53,0,.53.27.53h.17c.23,0,.14,0,.34-.53l.39-1.09A6.76,6.76,0,0,0,7,32.53a19.77,19.77,0,0,0,3.44,0l.44,2.71c.08.49.16.5.33.5h.27c.19,0,.17,0,.17-.51V32.44ZM5.81,35.74H6c.22,0,.23,0,.2-.53l-.07-1.44-.94.5.28.94C5.64,35.72,5.55,35.74,5.81,35.74Zm3.26,0h.26c.17,0,.19,0,.28-.5L10,33l-.94,0-.18,2.26C8.83,35.76,8.9,35.74,9.07,35.74Zm3.5-3.62a4.16,4.16,0,0,0,1.71-3V27.74l-1,.91a2.66,2.66,0,0,0-1.48,0l-1-.9v1.39A4.16,4.16,0,0,0,12.57,32.12ZM5.38,29.59c-1.7,0-2.28.71-3.13,2L0,35.05c2.17,0,3.35-1.33,4.33-3.71.09-.23.23-.14.23,0C4.56,31.72,5.15,29.79,5.38,29.59Z"/></g></g></svg>