<svg version="1.2" xmlns="http://www.w3.org/2000/svg" viewBox="0 0 58 44" width="58" height="44"><style>.a{fill:#fff}.b{fill:none;stroke:#fff;stroke-miterlimit:10;stroke-width:1.9}.c{fill:none;stroke:#fff;stroke-linecap:round;stroke-miterlimit:10;stroke-width:3}</style><path class="a" d="m16.3 20.3h-12c-1.7 0-3 1.3-3 2.9v8.4c1.5-1.5 3.6-2.5 6-2.5 4.5 0 8.2 3.7 8.2 8.3 0 1.2-0.3 2.5-0.8 3.6h16.4c1.6 0 2.9-1.4 2.9-3 0-9.7-7.9-17.7-17.7-17.7z"/><path fill-rule="evenodd" class="a" d="m13.9 37.4c0 3.6-3 6.6-6.6 6.6-3.7 0-6.7-3-6.7-6.6 0-3.7 3-6.7 6.7-6.7 3.6 0 6.6 3 6.6 6.7zm-2.7 0c0-2.2-1.8-4-3.9-4-2.2 0-4 1.8-4 4 0 2.1 1.8 3.9 4 3.9 2.1 0 3.9-1.8 3.9-3.9z"/><path class="b" d="m19.5 23.7c1.4-1.4 5.1-3.6 2.1-8.6-6.6-11.1 8.3-20.2 14.2-8.6 8.8 17.4 16.3 32.8 16.3 32.8"/><path class="c" d="m39.2 13.4c7.3 14.4 12.9 25.9 12.9 25.9"/><path class="c" d="m48.3 39.9h8.1"/></svg>