<?xml version="1.0" encoding="utf-8"?>
<!-- Generator: Adobe Illustrator 19.0.0, SVG Export Plug-In . SVG Version: 6.00 Build 0)  -->
<svg version="1.1" id="Layer_1" xmlns="http://www.w3.org/2000/svg" xmlns:xlink="http://www.w3.org/1999/xlink" x="0px" y="0px"
	 viewBox="0 0 71 33.6" style="enable-background:new 0 0 71 33.6;" xml:space="preserve">
<style type="text/css">
	.st0{fill:#FFFFFF;}
</style>
<path id="XMLID_2_" class="st0" d="M66.6,14.1L71,10c0,0-2-0.4-5.5-0.5l-1.4,0.6L62.3,10l-2.7,2.1L55.1,14l-4.5-0.5l0.4-12l0.7,0
	l0.1-0.7c0,0-11.1-0.7-11.3-0.7s-0.2,0.2,0,0.4c0.2,0.1,0.8,0.5,1.5,0.4c0.7,0,4.8,0.3,4.8,0.3s-0.6,0.1-0.9,0.3s-11.4,9.7-11.4,9.7
	s-2.9-0.4-7.9,0.6c-1.2-0.4-6.7-2.4-10.9-0.4c-2.4,0.1-10.2,0.7-13.1,2L0,13.4l2.5,0.3c0,0,2.2,1,5,1.5c2.8,0.5,12.9,2.2,12.9,2.2
	l0,0.4c0,0,0.9,0,1,0.9c0,0,6.6,0.8,7.1,0.9c0.5,0,2.9,0.8,3.4,0.9c0.5,0.1,2.6,0.4,3.2,0.4l-1.9,0.3l11.4,11.2l-4.9-0.2
	c0,0-0.5,0-0.5,0.3c0,0.3,0.3,0.5,0.8,0.5s11.1,0.7,11.1,0.7l0.1-0.3l0-0.5l-0.8,0l0.1-9.2l3.5-0.2l0.3-1.2l1.5,0.2l6.5,7.4l2.9,0.3
	l1.5-0.8l0.2-6.1l-1.1-0.1l0.1-1.3H66c0,0,0.9-2,0.5-4.4l-0.8-0.3v-1.2l-0.6-0.1l1.6-0.1L66.6,14.1z"/>
</svg>
